#!OML:ASF H:\MichaelJackson\Top Level 1\Subject 1\Session 1\male.ASF
:FULLY-SPECIFIED
:DEGREES
1666
root -4.08156 16.0121 26.4204 -171.74 -190.577 -177.212
lowerback -4.15407 -3.04525 2.52179
upperback -1.83399 -4.13263 -3.9395
thorax -0.0376861 -2.11209 -5.64369
lowerneck -8.33847 -2.68416 1.58209
upperneck 5.07783 -4.0036 3.30876
head 3.14 -1.82237 0.589211
rclavicle -3.68497e-014 -1.03368e-014
rhumerus 11.1952 -21.2683 0.718971
rradius 27.2576
rwrist -5.18966
rhand -41.6718 -46.8088
rfingers 7.12502
rthumb -14.5789 -76.2765
lclavicle -3.68497e-014 -1.03368e-014
lhumerus -55.2113 -31.7438 109.389
lradius 55.4766
lwrist 17.014
lhand 30.222 22.987
lfingers 7.12502
lthumb 53.9064 41.8881
rfemur -27.7966 -11.6589 3.64488
rtibia 50.1109
rfoot -26.1229 0.83878
rtoes -25.7371
lfemur -7.71339 -14.06 -1.0605
ltibia 23.0413
lfoot -33.2529 -4.44288
ltoes -26.5905
1667
root -4.07669 16.0131 26.4183 -171.74 -190.526 -177.253
lowerback -4.14138 -3.05695 2.53254
upperback -1.84009 -4.14879 -3.94327
thorax -0.0540401 -2.12085 -5.6531
lowerneck -8.28581 -2.6759 1.53733
upperneck 5.06312 -3.98926 3.36055
head 3.12721 -1.81501 0.615416
rclavicle 2.35808e-014 -5.56597e-015
rhumerus 11.2961 -21.2354 0.563131
rradius 27.2658
rwrist -5.22055
rhand -41.6891 -46.6259
rfingers 7.12502
rthumb -14.5956 -76.0924
lclavicle 2.35808e-014 -5.56597e-015
lhumerus -55.2313 -31.7451 109.393
lradius 55.4597
lwrist 16.9433
lhand 30.2544 22.8923
lfingers 7.12502
lthumb 53.9355 41.7739
rfemur -27.8049 -11.633 3.67325
rtibia 50.0512
rfoot -26.1075 0.875439
rtoes -25.7101
lfemur -7.69858 -14.1408 -1.05162
ltibia 23.0481
lfoot -33.2357 -4.30307
ltoes -26.5951
1668
root -4.07098 16.015 26.416 -171.744 -190.505 -177.312
lowerback -4.14748 -3.0697 2.54553
upperback -1.82722 -4.16623 -3.92555
thorax -0.0389593 -2.12899 -5.64321
lowerneck -8.25383 -2.68327 1.53913
upperneck 5.06223 -3.99448 3.30612
head 3.11927 -1.82011 0.597532
rclavicle 2.53202e-014 1.82882e-014
rhumerus 11.331 -21.1843 0.483158
rradius 27.3133
rwrist -5.17991
rhand -41.6015 -46.3484
rfingers 7.12502
rthumb -14.5112 -75.821
lclavicle 2.53202e-014 1.82882e-014
lhumerus -55.1868 -31.7521 109.389
lradius 55.4207
lwrist 16.9738
lhand 30.2195 22.7892
lfingers 7.12502
lthumb 53.9042 41.6918
rfemur -27.7807 -11.6217 3.72101
rtibia 49.9763
rfoot -26.0766 0.856719
rtoes -25.8113
lfemur -7.69605 -14.1494 -1.01751
ltibia 23.0531
lfoot -33.263 -4.22881
ltoes -26.6414
1669
root -4.06584 16.0163 26.415 -171.758 -190.488 -177.372
lowerback -4.18028 -3.06083 2.53496
upperback -1.79945 -4.15364 -3.9031
thorax 0.0120088 -2.12067 -5.61656
lowerneck -8.25388 -2.72731 1.52306
upperneck 5.09017 -4.05079 3.2798
head 3.1291 -1.84889 0.588645
rclavicle -2.03506e-014 2.14687e-014
rhumerus 11.5517 -21.7277 0.165648
rradius 27.1101
rwrist -4.31818
rhand -41.6127 -45.8513
rfingers 7.12502
rthumb -14.522 -75.3231
lclavicle -2.03506e-014 2.14687e-014
lhumerus -55.0902 -31.7958 109.408
lradius 55.3286
lwrist 17.0853
lhand 30.1823 22.8307
lfingers 7.12502
lthumb 53.8708 41.7557
rfemur -27.7487 -11.6089 3.76966
rtibia 49.9031
rfoot -26.0686 0.837198
rtoes -25.902
lfemur -7.67602 -14.1902 -0.986534
ltibia 23.0566
lfoot -33.2578 -4.14242
ltoes -26.6691
1670
root -4.06056 16.0185 26.4138 -171.773 -190.493 -177.419
lowerback -4.19592 -3.06216 2.51316
upperback -1.78755 -4.15444 -3.88031
thorax 0.0363191 -2.1199 -5.58184
lowerneck -8.18253 -2.78294 1.44656
upperneck 5.07554 -4.11836 3.3373
head 3.11457 -1.88281 0.618164
rclavicle -2.39536e-014 1.43125e-014
rhumerus 11.2102 -20.957 0.534204
rradius 27.3581
rwrist -5.01496
rhand -41.6296 -45.5128
rfingers 7.12502
rthumb -14.5383 -74.9834
lclavicle -2.39536e-014 1.43125e-014
lhumerus -55.074 -31.7756 109.422
lradius 55.3301
lwrist 17.1975
lhand 30.2743 22.9878
lfingers 7.12502
lthumb 53.9534 41.8573
rfemur -27.705 -11.6116 3.80195
rtibia 49.8317
rfoot -26.0539 0.855727
rtoes -25.8247
lfemur -7.67082 -14.1875 -0.964307
ltibia 23.0657
lfoot -33.2847 -4.08966
ltoes -26.6894
1671
root -4.05532 16.0198 26.4117 -171.761 -190.47 -177.458
lowerback -4.20088 -3.05722 2.49931
upperback -1.78329 -4.14722 -3.87876
thorax 0.0454569 -2.11585 -5.57267
lowerneck -8.17598 -2.82722 1.3851
upperneck 5.101 -4.1771 3.41241
head 3.12643 -1.90985 0.650188
rclavicle -2.94698e-014 -2.70347e-014
rhumerus 11.0371 -20.5604 0.682781
rradius 27.5151
rwrist -5.55876
rhand -41.4987 -45.419
rfingers 7.12502
rthumb -14.4122 -74.8986
lclavicle -2.94698e-014 -2.70347e-014
lhumerus -55.0333 -31.7638 109.378
lradius 55.3425
lwrist 17.3393
lhand 30.3064 23.1968
lfingers 7.12502
lthumb 53.9822 42.0469
rfemur -27.7147 -11.5966 3.82982
rtibia 49.7744
rfoot -26.0133 0.87531
rtoes -25.8073
lfemur -7.68705 -14.1098 -0.948011
ltibia 23.0713
lfoot -33.3102 -4.10709
ltoes -26.7041
1672
root -4.05034 16.0213 26.4097 -171.748 -190.472 -177.521
lowerback -4.16528 -3.06046 2.53747
upperback -1.80827 -4.15335 -3.88553
thorax -0.00423798 -2.12091 -5.59826
lowerneck -8.14843 -2.86634 1.41798
upperneck 5.12268 -4.23338 3.41433
head 3.12845 -1.93692 0.642417
rclavicle 5.07149e-014 2.94201e-014
rhumerus 11.0454 -20.5323 0.571616
rradius 27.4935
rwrist -5.41005
rhand -41.5505 -45.817
rfingers 7.12502
rthumb -14.4621 -75.2931
lclavicle 5.07149e-014 2.94201e-014
lhumerus -55.0839 -31.7371 109.346
lradius 55.4138
lwrist 17.4054
lhand 30.2696 23.2536
lfingers 7.12502
lthumb 53.9492 42.126
rfemur -27.7213 -11.5798 3.88279
rtibia 49.7257
rfoot -25.9744 0.875834
rtoes -25.8534
lfemur -7.72363 -13.9669 -0.896249
ltibia 23.0832
lfoot -33.339 -4.14447
ltoes -26.7293
1673
root -4.04547 16.023 26.4077 -171.753 -190.476 -177.555
lowerback -4.15368 -3.05812 2.49912
upperback -1.81289 -4.14873 -3.86704
thorax -0.0106792 -2.11833 -5.55616
lowerneck -8.12527 -2.89705 1.47684
upperneck 5.19979 -4.28116 3.38338
head 3.14867 -1.95935 0.619554
rclavicle 1.0138e-014 -7.95139e-016
rhumerus 11.1362 -20.6352 0.475641
rradius 27.3776
rwrist -5.08896
rhand -41.6008 -45.9609
rfingers 7.12502
rthumb -14.5106 -75.4334
lclavicle 1.0138e-014 -7.95139e-016
lhumerus -55.0382 -31.6783 109.359
lradius 55.3781
lwrist 17.3425
lhand 30.255 23.3618
lfingers 7.12502
lthumb 53.9361 42.243
rfemur -27.7098 -11.573 3.90027
rtibia 49.685
rfoot -25.9147 0.908872
rtoes -25.7744
lfemur -7.73354 -13.9241 -0.885146
ltibia 23.0986
lfoot -33.3585 -4.1534
ltoes -26.6045
1674
root -4.03962 16.0236 26.406 -171.764 -190.452 -177.61
lowerback -4.16018 -3.06099 2.47961
upperback -1.80057 -4.15172 -3.8343
thorax 0.00930955 -2.11871 -5.51181
lowerneck -8.0423 -2.90208 1.45401
upperneck 5.17124 -4.28437 3.41615
head 3.12451 -1.96164 0.635388
rclavicle -2.77305e-014 2.38542e-014
rhumerus 11.3737 -21.1571 0.182101
rradius 27.1805
rwrist -4.51695
rhand -41.513 -45.5318
rfingers 7.12502
rthumb -14.4259 -75.0104
lclavicle -2.77305e-014 2.38542e-014
lhumerus -55.0014 -31.5953 109.346
lradius 55.3958
lwrist 17.2618
lhand 30.2561 23.3096
lfingers 7.12502
lthumb 53.9371 42.1901
rfemur -27.7086 -11.5585 3.93338
rtibia 49.6524
rfoot -25.8804 0.937525
rtoes -25.8177
lfemur -7.7218 -13.9045 -0.867144
ltibia 23.1064
lfoot -33.3526 -3.99201
ltoes -26.7519
1675
root -4.03477 16.0249 26.404 -171.758 -190.446 -177.664
lowerback -4.21012 -3.07584 2.42577
upperback -1.74254 -4.16879 -3.77796
thorax 0.103487 -2.12323 -5.42836
lowerneck -8.17075 -2.93507 1.37678
upperneck 5.21895 -4.32802 3.45206
head 3.16918 -1.98111 0.656075
rclavicle -6.8208e-014 -1.19271e-014
rhumerus 11.5117 -21.5458 0.00932382
rradius 27.095
rwrist -4.14359
rhand -41.4661 -45.2906
rfingers 7.12502
rthumb -14.3808 -74.7725
lclavicle -6.8208e-014 -1.19271e-014
lhumerus -54.8702 -31.511 109.294
lradius 55.4345
lwrist 17.1155
lhand 30.276 23.2477
lfingers 7.12502
lthumb 53.9549 42.1162
rfemur -27.7189 -11.5413 3.97518
rtibia 49.6195
rfoot -25.8179 0.972775
rtoes -25.7474
lfemur -7.74773 -13.8219 -0.824896
ltibia 23.1145
lfoot -33.3665 -4.00351
ltoes -26.8044
1676
root -4.02985 16.0253 26.4026 -171.782 -190.42 -177.687
lowerback -4.13108 -3.07908 2.41591
upperback -1.75731 -4.17258 -3.79289
thorax 0.0433069 -2.12678 -5.43278
lowerneck -8.22332 -2.98248 1.3438
upperneck 5.31269 -4.39615 3.49433
head 3.21462 -2.01148 0.670723
rclavicle 3.61291e-014 3.18055e-015
rhumerus 11.5738 -21.5458 -0.0963035
rradius 27.038
rwrist -4.11483
rhand -41.3798 -45.425
rfingers 7.12502
rthumb -14.2976 -74.9128
lclavicle 3.61291e-014 3.18055e-015
lhumerus -54.9614 -31.455 109.281
lradius 55.5415
lwrist 16.9726
lhand 30.1563 23.031
lfingers 7.12502
lthumb 53.8475 41.9716
rfemur -27.7001 -11.5053 3.96865
rtibia 49.5921
rfoot -25.7768 1.03224
rtoes -25.6444
lfemur -7.73501 -13.7968 -0.827079
ltibia 23.1374
lfoot -33.3557 -4.027
ltoes -26.7845
1677
root -4.02473 16.0261 26.402 -171.799 -190.394 -177.732
lowerback -4.10475 -3.07048 2.41929
upperback -1.76293 -4.16117 -3.79631
thorax 0.0235866 -2.12163 -5.43603
lowerneck -8.2083 -3.01159 1.38364
upperneck 5.35576 -4.44 3.48156
head 3.22567 -2.03221 0.657273
rclavicle 6.55244e-014 5.48646e-014
rhumerus 11.1231 -20.6724 0.313734
rradius 27.4175
rwrist -5.16539
rhand -41.8816 -46.712
rfingers 7.12502
rthumb -14.7811 -76.1649
lclavicle 6.55244e-014 5.48646e-014
lhumerus -55.0396 -31.4387 109.282
lradius 55.6419
lwrist 16.8907
lhand 30.1462 22.9753
lfingers 7.12502
lthumb 53.8384 41.922
rfemur -27.6854 -11.4935 3.99547
rtibia 49.5614
rfoot -25.736 1.08137
rtoes -25.5416
lfemur -7.7352 -13.6994 -0.790723
ltibia 23.1649
lfoot -33.3665 -4.17401
ltoes -26.6461
1678
root -4.02009 16.026 26.4012 -171.823 -190.343 -177.76
lowerback -4.08607 -3.06594 2.39322
upperback -1.74992 -4.15378 -3.7929
thorax 0.0296054 -2.11731 -5.41681
lowerneck -8.14266 -3.00839 1.36822
upperneck 5.31675 -4.43486 3.53741
head 3.20164 -2.02929 0.679656
rclavicle 2.01269e-015 2.38542e-015
rhumerus 11.0334 -20.4271 0.418658
rradius 27.4828
rwrist -5.34588
rhand -41.7258 -46.3904
rfingers 7.12502
rthumb -14.631 -75.8543
lclavicle 2.01269e-015 2.38542e-015
lhumerus -55.0082 -31.3904 109.248
lradius 55.6586
lwrist 16.8385
lhand 30.169 22.9737
lfingers 7.12502
lthumb 53.8588 41.9067
rfemur -27.6754 -11.467 4.00061
rtibia 49.5325
rfoot -25.6974 1.14793
rtoes -25.4394
lfemur -7.71524 -13.6467 -0.779221
ltibia 23.1965
lfoot -33.3917 -4.24588
ltoes -26.6304
